<svg width="120" height="40" viewBox="0 0 120 40" fill="none" xmlns="http://www.w3.org/2000/svg">
<path d="M72.4613 12.1498H72.453C68.1081 12.1498 64.5925 15.6737 64.5925 20.0103C64.5925 24.3551 68.1081 27.8791 72.453 27.8791C76.7978 27.8791 80.3218 24.3634 80.3218 20.0186C80.3218 15.6737 76.8061 12.1498 72.4613 12.1498ZM75.7862 23.3518C73.9372 25.1926 70.9522 25.1843 69.1114 23.3436C67.279 21.5028 67.279 18.5178 69.1114 16.677C70.9522 14.828 73.9372 14.828 75.7862 16.6687L75.7945 16.677C77.6436 18.5178 77.6353 21.5111 75.7862 23.3518Z" fill="#008DFF"/>
<path d="M63.0171 24.778L62.2294 24.7366H55.1483L64.5925 15.2924L64.551 14.5046C64.5179 13.236 63.498 12.2161 62.2294 12.183L61.4416 12.1415H49.6426L49.684 12.9292C49.7421 14.1813 50.7454 15.1929 52.0057 15.2509L52.7934 15.2924H59.8745L50.4303 24.7366L50.4717 25.5243C50.5132 26.7846 51.5331 27.8045 52.7934 27.846L53.5811 27.8874H65.3802L65.3387 27.0997C65.2309 25.7979 64.3106 24.8527 63.0171 24.778Z" fill="#008DFF"/>
<path d="M113.372 12.1498C111.565 12.1498 109.848 12.9292 108.654 14.2808C106.565 11.9093 103.033 11.4533 100.413 13.2277C99.8073 12.5395 98.4308 12.1498 97.6431 12.1498V27.8874L98.4308 27.846C99.7409 27.763 100.703 26.8344 100.753 25.5243L100.794 24.7366V19.2309L100.835 18.4432C100.835 17.8959 100.976 17.357 101.225 16.8678C102.087 15.367 104.011 14.8529 105.52 15.7235C105.993 15.9971 106.391 16.3951 106.664 16.8678H106.656C106.913 17.357 107.046 17.8959 107.046 18.4432L107.087 19.2309V24.7366L107.129 25.5243C107.179 26.7846 108.182 27.7962 109.442 27.846L110.23 27.8874V19.2309L110.271 18.4432C110.271 17.8876 110.404 17.3487 110.661 16.8595C111.532 15.3587 113.464 14.8446 114.964 15.7235C115.437 15.9971 115.835 16.3951 116.109 16.8678C116.357 17.357 116.49 17.8959 116.49 18.4432L116.532 19.2309V24.7366L116.573 25.5243C116.615 26.7846 117.626 27.7962 118.886 27.846L119.674 27.8874V18.4432C119.666 14.969 116.847 12.1498 113.372 12.1498Z" fill="#008DFF"/>
<path d="M94.542 14.4549C93.0661 12.9789 91.0678 12.1498 88.9783 12.1498C86.8888 12.1498 84.8905 12.9789 83.4146 14.4549C80.3467 17.5311 80.3467 22.5144 83.4229 25.5823C86.4991 28.6502 91.4824 28.6502 94.5503 25.574C97.6265 22.5061 97.6182 17.5228 94.542 14.4549ZM92.3116 23.3518C90.4625 25.1926 87.4775 25.1843 85.6368 23.3436C83.8043 21.5028 83.8043 18.5178 85.6368 16.677C87.4775 14.828 90.4625 14.828 92.3116 16.6687L92.3199 16.677C94.1689 18.5178 94.1606 21.5111 92.3116 23.3518Z" fill="#008DFF"/>
<path d="M39.4482 19.8987C39.4482 9.00501 30.6171 0.174072 19.7241 0.174072C8.83076 0.174072 0 9.00501 0 19.8987C0 30.7918 8.83076 39.6222 19.7241 39.6222C30.6171 39.6222 39.4482 30.7918 39.4482 19.8987Z" fill="#008DFF"/>
<path d="M7.01926 12.8087H21.4835C21.4835 12.8087 25.0114 13.1629 25.1289 15.9953V26.9713H11.1351C11.1351 26.9713 7.13682 27.4433 7.01926 23.3124" fill="white"/>
<path d="M32.2885 12.8087V26.9876L25.9712 22.8405V17.0575L32.2885 12.8087Z" fill="white"/>
</svg>
